<?xml version="1.0" standalone="no"?>
<!DOCTYPE svg PUBLIC "-//W3C//DTD SVG 20010904//EN"
 "http://www.w3.org/TR/2001/REC-SVG-20010904/DTD/svg10.dtd">
<svg version="1.0" xmlns="http://www.w3.org/2000/svg"
 width="256.000000pt" height="256.000000pt" viewBox="0 0 256.000000 256.000000"
 preserveAspectRatio="xMidYMid meet">
<metadata>
Created by potrace 1.11, written by Peter Selinger 2001-2013
</metadata>
<g transform="translate(0.000000,256.000000) scale(0.100000,-0.100000)"
fill="#000000" stroke="none">
<path d="M1387 2309 c-49 -12 -134 -52 -171 -82 l-29 -24 -51 20 c-70 26 -202
21 -264 -12 -101 -52 -169 -148 -175 -248 -3 -52 -3 -52 -58 -80 -37 -20 -64
-43 -87 -77 -29 -44 -32 -55 -32 -128 0 -87 11 -116 59 -162 17 -17 31 -38 31
-47 0 -24 43 -143 64 -173 16 -25 16 -25 46 -8 29 16 30 20 30 84 l0 67 38 7
c82 14 171 92 187 165 6 27 10 29 53 29 26 0 62 4 81 10 32 9 37 7 83 -36 27
-25 79 -59 116 -77 116 -54 287 -48 388 14 l31 19 7 -46 c3 -26 6 -85 6 -131
0 -76 2 -87 23 -104 12 -10 25 -18 28 -19 10 0 56 102 74 164 14 48 16 81 11
165 -3 58 -6 111 -7 116 0 6 10 37 21 70 33 89 25 206 -18 296 -35 73 -112
153 -180 188 -90 46 -212 62 -305 40z"/>
<path d="M967 1380 c-67 -53 -27 -170 58 -170 7 0 27 12 44 26 26 22 31 33 31
70 0 81 -73 121 -133 74z"/>
<path d="M1445 1375 c-19 -18 -25 -35 -25 -69 0 -37 5 -48 31 -70 17 -14 37
-26 44 -26 32 0 65 21 80 51 47 91 -60 185 -130 114z"/>
<path d="M1030 518 c-36 -13 -75 -20 -111 -19 -76 2 -87 -13 -144 -193 -55
-174 -61 -157 71 -205 278 -101 591 -101 869 0 47 17 85 33 85 36 0 3 -23 77
-51 164 -59 187 -71 203 -141 195 -35 -4 -57 0 -89 16 -23 11 -69 23 -101 26
-58 5 -58 5 -58 -22 0 -36 -25 -71 -60 -86 -57 -24 -124 14 -136 77 -6 30 -9
33 -43 33 -20 -1 -61 -10 -91 -22z m420 -175 c0 -14 2 -14 20 2 25 22 40 11
17 -12 -16 -16 -15 -18 5 -40 29 -31 14 -42 -17 -13 l-25 23 0 -21 c0 -12 -4
-22 -10 -22 -5 0 -10 23 -10 50 0 28 5 50 10 50 6 0 10 -7 10 -17z"/>
</g>
</svg>
